<svg width="196" height="196" viewBox="0 0 196 196" fill="none" xmlns="http://www.w3.org/2000/svg">
<path d="M181.404 106.837C182.599 105.69 182.638 103.791 181.491 102.595C180.344 101.4 178.445 101.36 177.249 102.508L181.404 106.837ZM101.007 167.716L100.204 170.607L101.007 167.716ZM150.166 62.7234L151.244 65.5231L150.166 62.7234ZM58.7653 148.219L57.9863 145.322L57.9863 145.322L58.7653 148.219ZM102.055 55.7632L99.2007 54.8387L102.055 55.7632ZM72.8767 29.2647C72.2942 30.8158 73.0795 32.5454 74.6306 33.1279L99.9073 42.6195C101.458 43.2019 103.188 42.4167 103.77 40.8656C104.353 39.3145 103.568 37.5849 102.016 37.0024L79.5484 28.5655L87.9853 6.09731C88.5678 4.54621 87.7825 2.81661 86.2314 2.23417C84.6803 1.65172 82.9507 2.43696 82.3683 3.98806L72.8767 29.2647ZM179.326 104.672C177.249 102.508 177.249 102.508 177.249 102.508C177.248 102.509 177.248 102.509 177.247 102.51C177.245 102.512 177.242 102.515 177.238 102.519C177.23 102.527 177.217 102.538 177.201 102.554C177.169 102.585 177.12 102.631 177.056 102.693C176.927 102.816 176.735 103 176.484 103.239C175.982 103.718 175.244 104.421 174.3 105.314C172.412 107.102 169.703 109.654 166.422 112.709C159.857 118.82 151.008 126.934 141.859 134.958C132.699 142.992 123.289 150.893 115.588 156.602C111.727 159.463 108.375 161.715 105.742 163.155C104.421 163.878 103.371 164.347 102.586 164.598C101.704 164.88 101.558 164.755 101.809 164.825L100.204 170.607C101.679 171.016 103.216 170.696 104.413 170.313C105.708 169.899 107.133 169.234 108.623 168.419C111.612 166.783 115.22 164.343 119.161 161.422C127.062 155.564 136.62 147.534 145.816 139.468C155.024 131.392 163.919 123.235 170.51 117.101C173.806 114.033 176.527 111.469 178.426 109.671C179.375 108.772 180.118 108.064 180.625 107.581C180.878 107.339 181.072 107.154 181.203 107.028C181.269 106.966 181.319 106.918 181.352 106.886C181.369 106.87 181.382 106.858 181.39 106.85C181.395 106.845 181.398 106.842 181.4 106.84C181.401 106.839 181.402 106.838 181.403 106.838C181.403 106.837 181.404 106.837 179.326 104.672ZM101.809 164.825C102.153 164.921 102.513 165.172 102.734 165.526C102.906 165.803 102.877 165.957 102.867 165.772C102.846 165.355 102.97 164.442 103.473 162.887C104.448 159.869 106.469 155.554 109.276 150.276C114.861 139.771 123.195 126.112 131.341 112.67C139.441 99.3024 147.377 86.1154 152.018 76.7462C154.279 72.1824 155.99 68.0833 156.325 65.2327C156.471 63.9873 156.523 61.6099 154.574 60.1763C152.692 58.7918 150.423 59.41 149.088 59.9237L151.244 65.5231C152.42 65.0703 151.873 65.6379 151.019 65.0098C150.098 64.3325 150.485 63.5181 150.366 64.5335C150.17 66.2043 148.952 69.4173 146.641 74.0829C142.139 83.1728 134.358 96.1144 126.21 109.56C118.108 122.93 109.663 136.768 103.978 147.459C101.15 152.778 98.9127 157.486 97.7635 161.042C97.2035 162.774 96.7977 164.535 96.8748 166.072C96.9146 166.864 97.0914 167.815 97.6382 168.694C98.233 169.651 99.1362 170.31 100.204 170.607L101.809 164.825ZM149.088 59.9237C146.669 60.855 143.685 62.9789 140.477 65.6321C137.183 68.3558 133.366 71.8846 129.229 75.9112C120.956 83.9654 111.244 94.1706 101.644 104.245C92.0169 114.347 82.5041 124.315 74.5511 131.987C70.5728 135.825 67.0328 139.042 64.0971 141.396C62.6292 142.573 61.3509 143.503 60.2735 144.179C59.1614 144.877 58.4142 145.207 57.9863 145.322L59.5442 151.116C60.8191 150.773 62.1559 150.081 63.4623 149.262C64.8034 148.42 66.278 147.338 67.8506 146.077C70.9959 143.555 74.6875 140.193 78.7169 136.306C86.7793 128.528 96.386 118.459 105.987 108.384C115.615 98.2813 125.239 88.1688 133.414 80.2105C137.502 76.231 141.188 72.8299 144.3 70.2559C147.498 67.6114 149.824 66.0696 151.244 65.5231L149.088 59.9237ZM57.9863 145.322C57.2794 145.512 57.5542 145.252 58.1135 145.586C58.8224 146.01 58.7894 146.63 58.7699 146.328C58.7501 146.022 58.8083 145.369 59.1091 144.263C59.3983 143.198 59.8618 141.891 60.5007 140.347C63.0799 134.114 68.0915 125.026 73.9762 114.795C79.8104 104.652 86.4718 93.437 92.1619 83.2022C97.8272 73.0119 102.706 63.488 104.909 56.6878L99.2007 54.8387C97.2027 61.0064 92.6085 70.0509 86.9178 80.2867C81.2519 90.4781 74.6743 101.547 68.7752 111.803C62.9266 121.972 57.7105 131.398 54.9567 138.053C54.2623 139.731 53.6984 141.293 53.3191 142.689C52.9514 144.042 52.6999 145.439 52.7824 146.715C52.865 147.994 53.3459 149.726 55.0336 150.736C56.5716 151.655 58.29 151.453 59.5442 151.116L57.9863 145.322ZM104.909 56.6878C108.523 45.5297 108.924 37.5987 106.709 32.151C104.352 26.3553 99.3931 24.1192 94.5118 23.6073C89.7502 23.108 84.678 24.1659 80.9661 25.2454C79.0756 25.7952 77.4632 26.3731 76.3197 26.8151C75.7468 27.0365 75.2887 27.2248 74.969 27.3601C74.809 27.4277 74.6834 27.4822 74.5952 27.5209C74.551 27.5403 74.5162 27.5558 74.4911 27.567C74.4785 27.5726 74.4683 27.5772 74.4607 27.5806C74.4568 27.5824 74.4536 27.5838 74.451 27.585C74.4497 27.5856 74.4482 27.5863 74.4475 27.5866C74.4462 27.5872 74.445 27.5877 75.6852 30.3193C76.9254 33.051 76.9245 33.0514 76.9238 33.0517C76.9238 33.0517 76.9232 33.052 76.9232 33.052C76.923 33.0521 76.9235 33.0519 76.9245 33.0514C76.9267 33.0504 76.9312 33.0484 76.9381 33.0453C76.9518 33.0392 76.975 33.0289 77.0072 33.0147C77.0717 32.9864 77.1722 32.9428 77.306 32.8862C77.5737 32.773 77.9736 32.6084 78.4826 32.4117C79.5027 32.0174 80.9497 31.4987 82.6415 31.0067C86.0943 30.0026 90.2789 29.1964 93.8861 29.5746C97.3734 29.9403 99.895 31.3234 101.15 34.411C102.547 37.8466 102.691 44.0629 99.2007 54.8387L104.909 56.6878Z" fill="url(#paint0_linear)"/>
<defs>
<linearGradient id="paint0_linear" x1="110.958" y1="191.164" x2="11.0115" y2="110.836" gradientUnits="userSpaceOnUse">
<stop stop-color="#015AFF"/>
<stop offset="0.473958" stop-color="#D817F8"/>
<stop offset="1" stop-color="#FFA51E"/>
</linearGradient>
</defs>
</svg>
